<svg xmlns="http://www.w3.org/2000/svg" version="1.1" xmlns:xlink="http://www.w3.org/1999/xlink" xmlns:svgjs="http://svgjs.com/svgjs" width="1440" height="560" preserveAspectRatio="none" viewBox="0 0 1440 560"><g mask="url(&quot;#SvgjsMask1000&quot;)" fill="none"><rect width="1440" height="560" x="0" y="0" fill="#0e2a47"></rect><rect width="166.32" height="166.32" clip-path="url(&quot;#SvgjsClipPath1001&quot;)" x="665.15" y="430.22" fill="url(#SvgjsPattern1002)" transform="rotate(126.66, 748.31, 513.38)"></rect><rect width="360" height="360" clip-path="url(&quot;#SvgjsClipPath1003&quot;)" x="-171.26" y="350.43" fill="url(#SvgjsPattern1004)" transform="rotate(326.35, 8.74, 530.43)"></rect><circle r="46.666666666666664" cx="640.32" cy="74.68" fill="#037b0b"></circle><path d="M195.75 628.4100000000001 L282.82000000000005 555.82L300.9128802447494 653.7428802447494z" stroke="#037b0b" stroke-width="1.53"></path><path d="M1181.55 66.14 L1161.55 186.75L1085.397759053832 40.292759053832015z" fill="#e73635"></path><path d="M335.33 317.96L345.85 310.65 355.29 319.31 365.81 312.01 375.24 320.66 385.76 313.36 395.2 322.02M334.79 325.94L345.31 318.63 354.75 327.29 365.26 319.99 374.7 328.65 385.22 321.34 394.65 330M334.25 333.92L344.77 326.62 354.21 335.27 364.72 327.97 374.16 336.63 384.68 329.32 394.11 337.98" stroke="#d3b714" stroke-width="1.18" stroke-dasharray="3, 3"></path><rect width="185.28" height="185.28" clip-path="url(&quot;#SvgjsClipPath1005&quot;)" x="167.75" y="37.69" fill="url(#SvgjsPattern1006)" transform="rotate(278.39, 260.39, 130.33)"></rect><rect width="127.44" height="127.44" clip-path="url(&quot;#SvgjsClipPath1007&quot;)" x="1095.93" y="18.46" fill="url(#SvgjsPattern1008)" transform="rotate(14.89, 1159.65, 82.18)"></rect><path d="M682.88 495.23L676.46 506.31 664.24 502.47 657.81 513.55 645.6 509.71 639.17 520.79 626.95 516.95" stroke="#d3b714" stroke-width="1" stroke-dasharray="4, 4"></path><rect width="204" height="204" clip-path="url(&quot;#SvgjsClipPath1009&quot;)" x="512.84" y="142.31" fill="url(#SvgjsPattern1010)" transform="rotate(210.54, 614.84, 244.31)"></rect><rect width="60" height="60" clip-path="url(&quot;#SvgjsClipPath1011&quot;)" x="384.87" y="57.89" fill="url(#SvgjsPattern1012)" transform="rotate(333.52, 414.87, 87.89)"></rect><path d="M54.12 363.97L51.34 376.47 38.54 376.51 35.76 389.01 22.95 389.04 20.18 401.55 7.37 401.58" stroke="#e73635" stroke-width="1" stroke-dasharray="2, 2"></path></g><defs><mask id="SvgjsMask1000"><rect width="1440" height="560" fill="#ffffff"></rect></mask><pattern x="0" y="0" width="166.32" height="9.24" patternUnits="userSpaceOnUse" id="SvgjsPattern1002"><rect width="166.32" height="4.62" x="0" y="0" fill="#d3b714"></rect><rect width="166.32" height="4.62" x="0" y="4.62" fill="rgba(0, 0, 0, 0)"></rect></pattern><clipPath id="SvgjsClipPath1001"><circle r="41.58" cx="748.31" cy="513.38"></circle></clipPath><pattern x="0" y="0" width="360" height="6" patternUnits="userSpaceOnUse" id="SvgjsPattern1004"><rect width="360" height="3" x="0" y="0" fill="#d3b714"></rect><rect width="360" height="3" x="0" y="3" fill="rgba(0, 0, 0, 0)"></rect></pattern><clipPath id="SvgjsClipPath1003"><circle r="90" cx="8.74" cy="530.43"></circle></clipPath><pattern x="0" y="0" width="11.58" height="11.58" patternUnits="userSpaceOnUse" id="SvgjsPattern1006"><path d="M5.79 1L5.79 10.58M1 5.79L10.58 5.79" stroke="#e73635" fill="none" stroke-width="1"></path></pattern><clipPath id="SvgjsClipPath1005"><circle r="46.32" cx="260.39" cy="130.33"></circle></clipPath><pattern x="0" y="0" width="10.62" height="10.62" patternUnits="userSpaceOnUse" id="SvgjsPattern1008"><path d="M5.31 1L5.31 9.62M1 5.31L9.62 5.31" stroke="#d3b714" fill="none" stroke-width="2.68"></path></pattern><clipPath id="SvgjsClipPath1007"><circle r="31.86" cx="1159.65" cy="82.18"></circle></clipPath><pattern x="0" y="0" width="204" height="6" patternUnits="userSpaceOnUse" id="SvgjsPattern1010"><rect width="204" height="3" x="0" y="0" fill="#d3b714"></rect><rect width="204" height="3" x="0" y="3" fill="rgba(0, 0, 0, 0)"></rect></pattern><clipPath id="SvgjsClipPath1009"><circle r="51" cx="614.84" cy="244.31"></circle></clipPath><pattern x="0" y="0" width="60" height="6" patternUnits="userSpaceOnUse" id="SvgjsPattern1012"><rect width="60" height="3" x="0" y="0" fill="#037b0b"></rect><rect width="60" height="3" x="0" y="3" fill="rgba(0, 0, 0, 0)"></rect></pattern><clipPath id="SvgjsClipPath1011"><circle r="15" cx="414.87" cy="87.89"></circle></clipPath></defs></svg>